G75*
%MOIN*%
%OFA0B0*%
%FSLAX24Y24*%
%IPPOS*%
%LPD*%
%AMOC8*
5,1,8,0,0,1.08239X$1,22.5*
%
%ADD10C,0.0000*%
D10*
X001510Y000307D02*
X000526Y002276D01*
X000526Y018024D01*
X001510Y019993D01*
X017258Y019993D01*
X018243Y018024D01*
X018243Y002276D01*
X017258Y000307D01*
X001510Y000307D01*
X001864Y001292D02*
X001866Y001342D01*
X001872Y001392D01*
X001882Y001441D01*
X001896Y001489D01*
X001913Y001536D01*
X001934Y001581D01*
X001959Y001625D01*
X001987Y001666D01*
X002019Y001705D01*
X002053Y001742D01*
X002090Y001776D01*
X002130Y001806D01*
X002172Y001833D01*
X002216Y001857D01*
X002262Y001878D01*
X002309Y001894D01*
X002357Y001907D01*
X002407Y001916D01*
X002456Y001921D01*
X002507Y001922D01*
X002557Y001919D01*
X002606Y001912D01*
X002655Y001901D01*
X002703Y001886D01*
X002749Y001868D01*
X002794Y001846D01*
X002837Y001820D01*
X002878Y001791D01*
X002917Y001759D01*
X002953Y001724D01*
X002985Y001686D01*
X003015Y001646D01*
X003042Y001603D01*
X003065Y001559D01*
X003084Y001513D01*
X003100Y001465D01*
X003112Y001416D01*
X003120Y001367D01*
X003124Y001317D01*
X003124Y001267D01*
X003120Y001217D01*
X003112Y001168D01*
X003100Y001119D01*
X003084Y001071D01*
X003065Y001025D01*
X003042Y000981D01*
X003015Y000938D01*
X002985Y000898D01*
X002953Y000860D01*
X002917Y000825D01*
X002878Y000793D01*
X002837Y000764D01*
X002794Y000738D01*
X002749Y000716D01*
X002703Y000698D01*
X002655Y000683D01*
X002606Y000672D01*
X002557Y000665D01*
X002507Y000662D01*
X002456Y000663D01*
X002407Y000668D01*
X002357Y000677D01*
X002309Y000690D01*
X002262Y000706D01*
X002216Y000727D01*
X002172Y000751D01*
X002130Y000778D01*
X002090Y000808D01*
X002053Y000842D01*
X002019Y000879D01*
X001987Y000918D01*
X001959Y000959D01*
X001934Y001003D01*
X001913Y001048D01*
X001896Y001095D01*
X001882Y001143D01*
X001872Y001192D01*
X001866Y001242D01*
X001864Y001292D01*
X015644Y001292D02*
X015646Y001342D01*
X015652Y001392D01*
X015662Y001441D01*
X015676Y001489D01*
X015693Y001536D01*
X015714Y001581D01*
X015739Y001625D01*
X015767Y001666D01*
X015799Y001705D01*
X015833Y001742D01*
X015870Y001776D01*
X015910Y001806D01*
X015952Y001833D01*
X015996Y001857D01*
X016042Y001878D01*
X016089Y001894D01*
X016137Y001907D01*
X016187Y001916D01*
X016236Y001921D01*
X016287Y001922D01*
X016337Y001919D01*
X016386Y001912D01*
X016435Y001901D01*
X016483Y001886D01*
X016529Y001868D01*
X016574Y001846D01*
X016617Y001820D01*
X016658Y001791D01*
X016697Y001759D01*
X016733Y001724D01*
X016765Y001686D01*
X016795Y001646D01*
X016822Y001603D01*
X016845Y001559D01*
X016864Y001513D01*
X016880Y001465D01*
X016892Y001416D01*
X016900Y001367D01*
X016904Y001317D01*
X016904Y001267D01*
X016900Y001217D01*
X016892Y001168D01*
X016880Y001119D01*
X016864Y001071D01*
X016845Y001025D01*
X016822Y000981D01*
X016795Y000938D01*
X016765Y000898D01*
X016733Y000860D01*
X016697Y000825D01*
X016658Y000793D01*
X016617Y000764D01*
X016574Y000738D01*
X016529Y000716D01*
X016483Y000698D01*
X016435Y000683D01*
X016386Y000672D01*
X016337Y000665D01*
X016287Y000662D01*
X016236Y000663D01*
X016187Y000668D01*
X016137Y000677D01*
X016089Y000690D01*
X016042Y000706D01*
X015996Y000727D01*
X015952Y000751D01*
X015910Y000778D01*
X015870Y000808D01*
X015833Y000842D01*
X015799Y000879D01*
X015767Y000918D01*
X015739Y000959D01*
X015714Y001003D01*
X015693Y001048D01*
X015676Y001095D01*
X015662Y001143D01*
X015652Y001192D01*
X015646Y001242D01*
X015644Y001292D01*
X015644Y019008D02*
X015646Y019058D01*
X015652Y019108D01*
X015662Y019157D01*
X015676Y019205D01*
X015693Y019252D01*
X015714Y019297D01*
X015739Y019341D01*
X015767Y019382D01*
X015799Y019421D01*
X015833Y019458D01*
X015870Y019492D01*
X015910Y019522D01*
X015952Y019549D01*
X015996Y019573D01*
X016042Y019594D01*
X016089Y019610D01*
X016137Y019623D01*
X016187Y019632D01*
X016236Y019637D01*
X016287Y019638D01*
X016337Y019635D01*
X016386Y019628D01*
X016435Y019617D01*
X016483Y019602D01*
X016529Y019584D01*
X016574Y019562D01*
X016617Y019536D01*
X016658Y019507D01*
X016697Y019475D01*
X016733Y019440D01*
X016765Y019402D01*
X016795Y019362D01*
X016822Y019319D01*
X016845Y019275D01*
X016864Y019229D01*
X016880Y019181D01*
X016892Y019132D01*
X016900Y019083D01*
X016904Y019033D01*
X016904Y018983D01*
X016900Y018933D01*
X016892Y018884D01*
X016880Y018835D01*
X016864Y018787D01*
X016845Y018741D01*
X016822Y018697D01*
X016795Y018654D01*
X016765Y018614D01*
X016733Y018576D01*
X016697Y018541D01*
X016658Y018509D01*
X016617Y018480D01*
X016574Y018454D01*
X016529Y018432D01*
X016483Y018414D01*
X016435Y018399D01*
X016386Y018388D01*
X016337Y018381D01*
X016287Y018378D01*
X016236Y018379D01*
X016187Y018384D01*
X016137Y018393D01*
X016089Y018406D01*
X016042Y018422D01*
X015996Y018443D01*
X015952Y018467D01*
X015910Y018494D01*
X015870Y018524D01*
X015833Y018558D01*
X015799Y018595D01*
X015767Y018634D01*
X015739Y018675D01*
X015714Y018719D01*
X015693Y018764D01*
X015676Y018811D01*
X015662Y018859D01*
X015652Y018908D01*
X015646Y018958D01*
X015644Y019008D01*
X001864Y019008D02*
X001866Y019058D01*
X001872Y019108D01*
X001882Y019157D01*
X001896Y019205D01*
X001913Y019252D01*
X001934Y019297D01*
X001959Y019341D01*
X001987Y019382D01*
X002019Y019421D01*
X002053Y019458D01*
X002090Y019492D01*
X002130Y019522D01*
X002172Y019549D01*
X002216Y019573D01*
X002262Y019594D01*
X002309Y019610D01*
X002357Y019623D01*
X002407Y019632D01*
X002456Y019637D01*
X002507Y019638D01*
X002557Y019635D01*
X002606Y019628D01*
X002655Y019617D01*
X002703Y019602D01*
X002749Y019584D01*
X002794Y019562D01*
X002837Y019536D01*
X002878Y019507D01*
X002917Y019475D01*
X002953Y019440D01*
X002985Y019402D01*
X003015Y019362D01*
X003042Y019319D01*
X003065Y019275D01*
X003084Y019229D01*
X003100Y019181D01*
X003112Y019132D01*
X003120Y019083D01*
X003124Y019033D01*
X003124Y018983D01*
X003120Y018933D01*
X003112Y018884D01*
X003100Y018835D01*
X003084Y018787D01*
X003065Y018741D01*
X003042Y018697D01*
X003015Y018654D01*
X002985Y018614D01*
X002953Y018576D01*
X002917Y018541D01*
X002878Y018509D01*
X002837Y018480D01*
X002794Y018454D01*
X002749Y018432D01*
X002703Y018414D01*
X002655Y018399D01*
X002606Y018388D01*
X002557Y018381D01*
X002507Y018378D01*
X002456Y018379D01*
X002407Y018384D01*
X002357Y018393D01*
X002309Y018406D01*
X002262Y018422D01*
X002216Y018443D01*
X002172Y018467D01*
X002130Y018494D01*
X002090Y018524D01*
X002053Y018558D01*
X002019Y018595D01*
X001987Y018634D01*
X001959Y018675D01*
X001934Y018719D01*
X001913Y018764D01*
X001896Y018811D01*
X001882Y018859D01*
X001872Y018908D01*
X001866Y018958D01*
X001864Y019008D01*
M02*
