%
M48
M72
T01C0.0120
T02C0.0197
T03C0.0276
T04C0.0315
T05C0.0354
T06C0.0360
T07C0.0400
T08C0.1260
%
T01
X3900Y3150
X4400Y1150
X7400Y1150
X7400Y3150
X7400Y5150
X9650Y7900
X9650Y9150
X10150Y9150
X11150Y7900
X11650Y6400
X10400Y3150
X10400Y1150
X13400Y1150
X13400Y3150
X16900Y2650
X15150Y7900
X16650Y8400
X13150Y10548
X13150Y11178
X12900Y9900
X11650Y10900
X10400Y11900
X10900Y12650
X9650Y12400
X8650Y12650
X8400Y11900
X7400Y13650
X9900Y13900
X10150Y14150
X10150Y16400
X10650Y18150
X8150Y16400
X7650Y18150
X2400Y11650
X4400Y9900
X7150Y9400
X13900Y13150
T02
X5400Y4150
X5900Y4150
X6392Y4150
X10150Y7900
X10650Y7900
X8400Y8900
X11900Y12150
X10650Y15400
X7525Y14400
X3900Y12150
X15900Y4642
X15900Y4150
X15900Y3650
X17400Y3650
X17400Y4150
X17400Y4642
T03
X13006Y16150
X13794Y16150
T04
X3400Y4650
X3400Y5650
X3400Y6650
T05
X8900Y4150
X9900Y4150
X12400Y4150
X13400Y4150
X17400Y11150
X17400Y12150
X17400Y13150
X17400Y14150
X17400Y15150
X17400Y16150
X15400Y14650
X14400Y14650
X13400Y14650
X12400Y14650
X8400Y19150
X7400Y19150
X6400Y19150
T06
X15400Y17150
T07
X1650Y3150
X1650Y4150
X1650Y5150
X1650Y6150
X1650Y7150
X1650Y8150
X4900Y7150
X5900Y7150
X6900Y7150
X14650Y10150
X14650Y11150
X14650Y12150
X15650Y12150
X15650Y11150
X15650Y10150
X15900Y8150
X15900Y7150
X15900Y6150
X17400Y6150
X17400Y7150
X17400Y8150
T08
X2494Y1292
X16274Y1292
X16274Y19008
X2494Y19008
M30
